<?xml version="1.0" standalone="no"?>
<!DOCTYPE svg PUBLIC "-//W3C//DTD SVG 20010904//EN"
 "http://www.w3.org/TR/2001/REC-SVG-20010904/DTD/svg10.dtd">
<svg version="1.0" xmlns="http://www.w3.org/2000/svg"
 width="512.000000pt" height="512.000000pt" viewBox="0 0 512.000000 512.000000"
 preserveAspectRatio="xMidYMid meet">

<g transform="translate(0.000000,512.000000) scale(0.100000,-0.100000)"
fill="#D3D3D3" stroke="none">
<path d="M1282 2991 c-700 -1143 -1272 -2081 -1272 -2085 0 -3 1148 -6 2550
-6 1403 0 2550 3 2550 6 0 10 -2544 4164 -2550 4164 -3 0 -578 -935 -1278
-2079z m1752 734 c256 -417 464 -760 462 -762 -2 -2 -45 13 -97 32 -529 203
-1163 202 -1682 -2 -49 -19 -90 -33 -92 -31 -7 7 928 1529 937 1526 4 -2 217
-345 472 -763z m-341 -906 c101 -37 194 -136 223 -237 11 -38 15 -80 12 -136
-3 -68 -10 -91 -37 -144 -41 -75 -103 -135 -179 -170 -49 -23 -70 -27 -152
-27 -82 0 -103 4 -152 27 -76 35 -138 95 -179 170 -33 60 -34 68 -34 168 0 94
3 111 27 160 87 176 289 257 471 189z m-753 -72 c0 -2 -9 -29 -20 -61 -45
-133 -46 -291 0 -427 12 -34 20 -63 18 -64 -7 -7 -206 74 -298 120 -52 26
-133 72 -179 102 l-85 55 85 55 c95 63 267 149 385 193 78 29 94 33 94 27z
m1375 -44 c122 -48 243 -110 344 -176 l85 -55 -85 -55 c-46 -30 -127 -76 -179
-102 -92 -46 -291 -127 -298 -120 -2 1 6 30 18 64 46 136 45 294 0 427 -11 32
-20 59 -20 61 0 6 36 -5 135 -44z m-2032 -531 c193 -127 427 -232 647 -291
224 -60 390 -81 630 -81 471 0 894 123 1274 370 82 54 111 68 117 58 4 -7 147
-240 317 -518 l309 -505 -1009 -3 c-554 -1 -1462 -1 -2016 0 l-1009 3 316 517
c174 285 317 518 318 518 1 0 49 -31 106 -68z"/>
<path d="M996 3676 c-42 -68 -76 -126 -76 -129 0 -7 250 -160 254 -156 11 13
156 252 154 254 -6 5 -214 132 -235 143 -20 11 -26 4 -97 -112z"/>
<path d="M3919 3724 c-68 -42 -126 -78 -127 -79 -2 -2 31 -60 74 -130 56 -90
82 -124 92 -120 21 8 242 145 242 150 0 4 -122 205 -145 237 -10 16 -23 10
-136 -58z"/>
<path d="M466 3294 c-42 -69 -74 -129 -71 -134 3 -5 49 -35 103 -68 53 -32
156 -95 228 -139 l131 -81 74 121 c41 67 75 126 76 132 2 8 -99 73 -428 272
l-36 22 -77 -125z"/>
<path d="M4342 3276 c-116 -73 -217 -137 -223 -143 -8 -8 9 -45 66 -138 74
-121 78 -125 99 -112 11 8 116 72 231 142 116 71 212 130 214 132 8 6 -146
248 -160 250 -8 1 -110 -58 -227 -131z"/>
<path d="M426 2748 c-54 -85 -136 -223 -136 -229 0 -12 254 -163 257 -153 2 5
37 63 77 129 41 66 74 120 73 121 -11 8 -250 154 -253 154 -2 0 -10 -10 -18
-22z"/>
<path d="M4550 2694 c-69 -42 -126 -77 -128 -79 -2 -2 143 -241 154 -254 3 -3
202 115 238 142 18 13 15 20 -59 140 -42 70 -78 127 -79 127 -1 0 -58 -34
-126 -76z"/>
<path d="M1810 440 l0 -150 150 0 150 0 0 150 0 150 -150 0 -150 0 0 -150z"/>
<path d="M2410 315 l0 -275 150 0 150 0 0 275 0 275 -150 0 -150 0 0 -275z"/>
<path d="M3010 440 l0 -150 150 0 150 0 0 150 0 150 -150 0 -150 0 0 -150z"/>
</g>
</svg>
