<?xml version="1.0" standalone="no"?>
<!DOCTYPE svg PUBLIC "-//W3C//DTD SVG 20010904//EN"
 "http://www.w3.org/TR/2001/REC-SVG-20010904/DTD/svg10.dtd">
<svg version="1.0" xmlns="http://www.w3.org/2000/svg"
 width="512.000000pt" height="512.000000pt" viewBox="0 0 512.000000 512.000000"
 preserveAspectRatio="xMidYMid meet">

<g transform="translate(0.000000,512.000000) scale(0.100000,-0.100000)"
fill="#D3D3D3" stroke="none">
<path d="M2315 5109 c-485 -50 -943 -235 -1334 -537 -111 -85 -348 -322 -433
-433 -158 -203 -309 -474 -394 -704 -47 -128 -107 -367 -130 -520 -26 -168
-26 -541 0 -710 23 -151 83 -391 131 -521 85 -231 235 -500 393 -703 81 -105
310 -336 412 -417 207 -163 488 -322 724 -409 130 -48 370 -108 521 -131 148
-22 532 -26 670 -6 482 69 888 240 1265 530 103 80 334 309 416 412 161 204
323 491 409 724 48 130 108 370 131 521 14 90 18 179 18 355 0 176 -4 265 -18
355 -23 151 -83 391 -131 521 -87 236 -246 517 -409 724 -81 102 -312 331
-417 412 -363 281 -762 452 -1219 523 -126 19 -477 28 -605 14z m580 -314
c235 -36 439 -101 660 -210 143 -70 305 -168 305 -184 0 -8 -244 -174 -255
-174 -3 0 -48 23 -98 51 -397 220 -884 293 -1342 201 -187 -37 -452 -140 -600
-232 l-41 -25 -133 90 -133 91 24 19 c49 38 212 131 320 183 233 110 488 179
773 209 83 8 424 -4 520 -19z m-1655 -608 l44 -137 -95 -98 c-180 -184 -280
-324 -383 -533 -104 -209 -164 -411 -191 -639 -22 -181 -20 -298 10 -535 l6
-50 -126 -85 c-70 -47 -130 -86 -135 -88 -10 -4 -47 195 -60 327 -71 719 233
1466 784 1928 64 54 91 71 96 62 4 -8 26 -76 50 -152z m2795 83 c368 -312 643
-783 739 -1263 61 -301 59 -629 -5 -924 -7 -32 -14 -60 -15 -61 -1 -2 -62 36
-134 85 l-131 88 6 50 c18 145 25 229 25 315 0 523 -227 1057 -604 1418 -36
35 -66 69 -66 75 0 18 91 287 97 287 3 0 43 -32 88 -70z m-1297 -60 c53 -6
153 -24 222 -41 125 -30 351 -115 356 -134 3 -9 -741 -521 -753 -519 -3 0
-176 117 -385 259 l-379 259 43 22 c75 38 235 94 341 119 178 43 369 55 555
35z m-1213 -901 c96 -297 131 -416 122 -421 -7 -4 -174 -117 -372 -252 l-360
-246 -8 37 c-14 61 0 317 23 436 11 59 34 149 51 200 38 118 142 330 211 429
56 81 189 240 195 234 2 -2 64 -189 138 -417z m545 177 c118 -81 216 -150 217
-154 3 -7 -342 -245 -362 -250 -9 -2 -215 606 -215 637 0 12 18 1 360 -233z
m1246 -90 l-106 -326 -98 67 c-53 37 -135 94 -182 126 -47 32 -85 63 -85 68 0
11 567 400 574 394 2 -2 -45 -150 -103 -329z m547 195 c225 -282 360 -679 356
-1046 -2 -180 40 -190 -377 95 -199 136 -365 250 -368 253 -3 3 56 192 131
421 l136 417 47 -52 c26 -29 60 -68 75 -88z m-1008 -641 c132 -90 244 -166
248 -170 5 -4 -33 -136 -84 -294 l-93 -286 -364 2 -365 3 -90 279 c-59 184
-87 284 -81 293 5 7 128 94 273 193 l264 179 26 -18 c14 -10 134 -91 266 -181z
m-1035 -551 c34 -105 59 -193 57 -195 -2 -2 -161 -3 -353 -2 l-349 3 280 191
c154 106 285 192 291 193 7 1 40 -85 74 -190z m1848 -4 l279 -190 -173 -3
c-95 -1 -253 -1 -352 0 l-179 3 57 175 c69 214 68 212 80 208 5 -2 135 -88
288 -193z m-2948 -505 c0 -6 22 -59 48 -119 276 -618 878 -1071 1534 -1153
l99 -12 48 -151 c27 -82 45 -152 40 -153 -6 -2 -63 1 -127 7 -797 76 -1485
552 -1832 1266 -55 112 -130 298 -130 321 0 2 72 4 160 4 105 0 160 -4 160
-10z m1420 -480 c87 -267 157 -486 156 -487 -4 -5 -182 39 -252 62 -44 14
-142 57 -219 95 -263 131 -480 321 -644 563 -47 70 -141 237 -141 250 0 4 212
6 472 5 l471 -3 157 -485z m557 90 c-72 -220 -134 -400 -137 -400 -4 0 -247
740 -258 786 -3 12 41 14 261 14 l264 0 -130 -400z m1383 393 c0 -15 -97 -185
-151 -263 -239 -348 -613 -602 -1016 -690 -56 -12 -83 -14 -83 -7 0 6 63 205
141 441 77 237 147 452 155 479 l16 47 469 0 c258 0 469 -3 469 -7z m640 2 c0
-21 -83 -226 -134 -330 -112 -229 -253 -424 -440 -610 -370 -368 -863 -597
-1389 -646 -70 -6 -130 -10 -132 -7 -3 2 18 72 46 155 l50 150 67 7 c189 19
423 88 614 179 323 156 596 397 801 707 65 99 159 280 188 363 l13 37 158 0
c87 0 158 -2 158 -5z"/>
</g>
</svg>
