<?xml version="1.0" standalone="no"?>
<!DOCTYPE svg PUBLIC "-//W3C//DTD SVG 20010904//EN"
 "http://www.w3.org/TR/2001/REC-SVG-20010904/DTD/svg10.dtd">
<svg version="1.0" xmlns="http://www.w3.org/2000/svg"
 width="512.000000pt" height="512.000000pt" viewBox="0 0 512.000000 512.000000"
 preserveAspectRatio="xMidYMid meet">

<g transform="translate(0.000000,512.000000) scale(0.100000,-0.100000)"
fill="#D3D3D3" stroke="none">
<path d="M1812 5024 c-12 -8 -22 -26 -22 -40 0 -17 -6 -24 -18 -24 -23 0 -52
-30 -52 -54 0 -29 18 -53 46 -60 25 -7 26 -9 22 -59 -3 -29 -32 -125 -66 -216
l-62 -165 0 -347 0 -347 -172 -121 -173 -121 -72 0 -73 0 0 210 0 210 -65 162
c-59 148 -65 169 -65 235 0 69 1 73 23 73 31 0 47 18 47 51 0 32 -23 59 -50
59 -11 0 -20 10 -24 24 -8 33 -33 56 -60 56 -28 0 -56 -29 -56 -58 0 -15 -6
-22 -18 -22 -24 0 -52 -31 -52 -58 0 -26 25 -52 51 -52 17 0 19 -7 19 -67 0
-59 -8 -89 -60 -226 l-60 -158 -1 -330 0 -329 -80 0 c-72 0 -82 -3 -104 -25
l-25 -24 0 -544 0 -545 -33 -6 c-29 -5 -44 -22 -120 -134 l-87 -127 0 -403 0
-402 -38 0 c-21 0 -45 -6 -54 -13 -8 -6 -50 -63 -92 -126 l-76 -113 0 -337 c0
-275 3 -341 14 -357 14 -19 52 -19 2447 -22 2169 -2 2435 0 2456 13 l23 15 0
344 0 344 -76 113 c-42 63 -84 120 -92 126 -9 7 -33 13 -54 13 l-38 0 0 402 0
403 -87 127 c-76 112 -91 129 -120 134 l-33 6 0 545 0 544 -25 24 c-22 22 -32
25 -105 25 l-80 0 0 330 0 330 -60 157 c-52 137 -60 167 -60 226 0 60 2 67 19
67 26 0 51 26 51 54 0 26 -29 56 -53 56 -11 0 -17 8 -17 23 0 13 -8 31 -18 40
-36 33 -85 14 -98 -39 -4 -14 -13 -24 -24 -24 -27 0 -50 -27 -50 -59 0 -33 16
-51 47 -51 22 0 23 -4 23 -73 0 -66 -6 -87 -65 -235 l-65 -162 0 -210 0 -210
-71 0 -71 0 -174 121 -174 121 0 347 0 347 -62 165 c-34 91 -63 187 -66 216
-4 50 -3 52 22 59 46 11 61 67 28 97 -10 10 -26 17 -35 17 -11 0 -17 8 -17 24
0 26 -33 56 -61 56 -22 0 -49 -32 -49 -58 0 -16 -6 -22 -23 -22 -71 0 -75
-100 -6 -115 31 -7 32 -7 26 -59 -3 -28 -33 -123 -66 -211 l-61 -160 0 -253 0
-254 -235 301 -235 300 0 65 c0 59 2 65 22 68 12 2 29 15 37 29 13 24 13 29
-2 53 -10 14 -26 26 -36 26 -13 0 -20 10 -25 30 -12 62 -100 64 -112 2 -4 -21
-14 -31 -36 -38 -17 -5 -35 -18 -39 -30 -11 -31 11 -68 44 -72 26 -3 27 -5 27
-68 l0 -65 -232 -293 -233 -294 -5 256 -5 257 -58 150 c-32 83 -61 173 -64
201 -6 52 -5 52 26 59 70 15 64 115 -7 115 -16 0 -22 6 -22 23 0 26 -28 57
-51 57 -8 0 -25 -7 -37 -16z m67 -539 c30 -76 31 -86 31 -227 l0 -148 -65 0
-65 0 0 143 c0 135 1 146 32 229 18 48 33 86 34 85 2 -1 17 -38 33 -82z m1460
-227 l1 -148 -65 0 -65 0 0 147 c0 141 1 151 32 231 l32 85 32 -84 c31 -81 33
-90 33 -231z m-550 -154 c123 -157 221 -287 219 -290 -3 -2 -208 -3 -457 -2
l-452 3 227 288 c125 158 230 287 234 287 3 0 106 -129 229 -286z m-1771 -147
c32 -80 33 -86 32 -229 l0 -148 -70 0 -70 0 0 146 c0 141 1 151 32 230 17 46
34 84 37 84 3 0 21 -37 39 -83z m3160 -1 l32 -83 0 -322 0 -321 -70 0 -70 0 0
323 -1 322 33 82 c18 46 36 83 39 83 3 0 20 -38 37 -84z m-2268 -346 l0 -380
-65 0 -65 0 0 380 0 380 65 0 65 0 0 -380z m1430 0 l0 -380 -65 0 -65 0 0 380
0 380 65 0 65 0 0 -380z m-250 45 l0 -35 -530 0 -530 0 0 35 0 35 530 0 530 0
0 -35z m-1437 -315 c-4 -4 -35 -14 -68 -23 -95 -25 -228 -84 -321 -143 -48
-30 -88 -54 -90 -54 -2 0 -4 54 -4 120 l0 120 98 1 97 0 145 103 145 103 3
-110 c1 -61 -1 -113 -5 -117z m2004 92 l102 -72 95 0 96 0 0 -120 c0 -66 -2
-120 -4 -120 -2 0 -43 24 -90 54 -96 61 -204 109 -316 142 l-75 22 -3 117 -3
117 48 -34 c26 -19 94 -67 150 -106z m-567 -482 l0 -550 -530 0 -530 0 0 550
0 550 530 0 530 0 0 -550z m-2040 395 l0 -115 -70 0 -70 0 0 115 0 115 70 0
70 0 0 -115z m610 -264 l0 -139 -47 -12 c-96 -23 -254 -92 -345 -150 l-93 -58
-3 121 c-3 140 -15 120 125 213 91 61 173 101 285 139 40 13 74 25 76 25 1 0
2 -62 2 -139z m1991 70 c47 -21 124 -63 170 -94 142 -94 130 -74 127 -215 l-3
-123 -42 31 c-70 51 -225 126 -337 161 l-106 34 0 137 0 137 53 -15 c28 -9 91
-33 138 -53z m-2852 -531 l1 -510 -45 0 -45 0 0 510 0 510 45 0 44 0 0 -510z
m3611 0 l0 -510 -45 0 -45 0 1 510 0 510 44 0 45 0 0 -510z m-3360 335 l0
-155 -70 0 -70 0 0 155 0 155 70 0 70 0 0 -155z m860 0 l0 -155 -65 0 -65 0 0
155 0 155 65 0 65 0 0 -155z m1430 0 l0 -155 -65 0 -65 0 0 155 0 155 65 0 65
0 0 -155z m870 0 l0 -155 -70 0 -70 0 0 155 0 155 70 0 70 0 0 -155z m-2552
-171 c-3 -36 -4 -37 -78 -58 -112 -33 -220 -81 -316 -142 -47 -30 -88 -54 -91
-54 -2 0 -3 10 -1 22 6 47 233 186 393 242 95 33 97 33 93 -10z m1888 12 c38
-13 91 -34 119 -45 118 -52 285 -170 285 -202 0 -10 -2 -19 -4 -19 -2 0 -43
24 -90 54 -96 61 -204 109 -316 142 -74 21 -75 22 -78 58 -2 20 1 36 6 36 5 0
40 -11 78 -24z m-2496 -921 l0 -806 -67 3 -68 3 -3 803 -2 802 70 0 70 0 0
-805z m860 0 l0 -805 -65 0 -65 0 0 805 0 805 65 0 65 0 0 -805z m1430 0 l0
-805 -65 0 -65 0 0 805 0 805 65 0 65 0 0 -805z m868 3 l-3 -803 -67 -3 -68
-3 0 806 0 805 70 0 70 0 -2 -802z m-2548 607 l0 -145 -245 0 c-307 0 -307 1
-102 139 73 49 277 139 345 151 1 0 2 -65 2 -145z m1977 83 c127 -52 313 -177
313 -209 0 -18 -13 -19 -245 -19 l-245 0 0 144 0 145 53 -15 c28 -9 84 -29
124 -46z m-1577 -358 c0 -56 -3 -70 -15 -70 -12 0 -15 14 -15 70 0 56 3 70 15
70 12 0 15 -14 15 -70z m148 3 c-2 -42 -8 -68 -15 -71 -10 -3 -13 15 -13 67 0
57 3 71 15 71 13 0 15 -12 13 -67z m142 -4 c0 -52 -3 -70 -12 -67 -8 3 -14 29
-16 71 -2 55 0 67 13 67 12 0 15 -14 15 -71z m150 0 c0 -52 -3 -70 -12 -67 -8
3 -14 29 -16 71 -2 55 0 67 13 67 12 0 15 -14 15 -71z m148 4 c-2 -42 -8 -68
-15 -71 -10 -3 -13 15 -13 67 0 57 3 71 15 71 13 0 15 -12 13 -67z m150 0 c-2
-42 -8 -68 -15 -71 -10 -3 -13 15 -13 67 0 57 3 71 15 71 13 0 15 -12 13 -67z
m142 -4 c0 -52 -3 -70 -12 -67 -8 3 -14 29 -16 71 -2 55 0 67 13 67 12 0 15
-14 15 -71z m150 1 c0 -56 -3 -70 -15 -70 -12 0 -15 14 -15 70 0 56 3 70 15
70 12 0 15 -14 15 -70z m-1430 -10 c0 -19 -7 -20 -245 -20 -238 0 -245 1 -245
20 0 19 7 20 245 20 238 0 245 -1 245 -20z m2290 0 c0 -19 -7 -20 -245 -20
-238 0 -245 1 -245 20 0 19 7 20 245 20 238 0 245 -1 245 -20z m-2290 -371 c0
-226 -1 -241 -17 -234 -10 5 -49 17 -88 27 -87 24 -220 19 -310 -11 -33 -11
-63 -21 -67 -21 -5 0 -8 108 -8 240 l0 240 245 0 245 0 0 -241z m2290 1 c0
-132 -3 -240 -7 -240 -5 0 -35 10 -68 21 -90 30 -223 35 -310 11 -38 -10 -78
-22 -87 -27 -17 -7 -18 8 -18 234 l0 241 245 0 245 0 0 -240z m-860 146 l0
-54 -62 21 c-48 16 -90 21 -173 21 -100 1 -118 -2 -202 -32 -88 -32 -93 -33
-123 -17 -54 28 -180 55 -254 54 -61 0 -129 -14 -223 -44 -22 -7 -23 -5 -23
49 l0 56 530 0 530 0 0 -54z m-2290 -36 l0 -50 -140 0 -140 0 36 50 36 50 104
0 104 0 0 -50z m3760 6 c16 -25 30 -47 30 -50 0 -3 -61 -6 -135 -6 l-135 0 0
50 0 50 105 0 104 0 31 -44z m-2132 -117 l34 -14 -184 -161 c-100 -89 -198
-173 -215 -188 l-33 -28 0 175 0 174 28 13 c83 39 137 50 237 47 57 -2 114
-10 133 -18z m547 7 c28 -7 65 -20 83 -30 l32 -17 0 -170 0 -170 -201 178
c-111 98 -202 183 -203 188 -3 30 200 45 289 21z m-2177 -428 l-3 -363 -162
-3 -163 -2 0 365 0 365 165 0 165 0 -2 -362z m3852 -3 l0 -365 -162 2 -163 3
-3 363 -2 362 165 0 165 0 0 -365z m-1819 118 l259 -228 0 -118 0 -118 -61 91
c-115 171 -296 337 -422 385 l-44 17 -69 -35 c-95 -48 -203 -134 -281 -226
-55 -65 -86 -108 -170 -238 -9 -14 -12 7 -12 107 l0 125 267 232 c147 128 269
233 270 233 2 0 120 -102 263 -227z m-1233 -37 l62 -29 0 -208 c0 -115 -2
-209 -5 -209 -3 0 -26 19 -50 41 l-45 42 0 124 c0 143 -11 180 -66 214 -45 27
-127 28 -163 1 -60 -45 -66 -62 -70 -220 l-4 -147 -43 -39 -44 -39 0 220 0
221 49 21 c78 33 119 40 221 38 80 -3 105 -8 158 -31z m2211 23 c24 -5 66 -19
93 -31 l48 -20 0 -221 0 -220 -44 39 -43 39 -4 147 c-4 158 -10 175 -70 220
-36 27 -118 26 -163 -1 -54 -34 -66 -71 -66 -212 l0 -123 -42 -43 c-23 -24
-46 -43 -50 -43 -4 0 -8 94 -8 209 l0 208 58 26 c31 14 66 27 77 30 37 9 170
7 214 -4z m-1158 -130 c139 -90 297 -287 394 -491 l45 -95 0 -302 0 -301 -45
0 -45 0 0 203 0 202 -30 63 c-72 153 -193 301 -304 373 -72 48 -101 49 -175 7
-111 -63 -227 -202 -302 -363 l-39 -83 0 -201 0 -201 -60 0 -60 0 0 286 0 285
59 122 c33 67 83 158 112 202 95 144 306 335 370 335 9 0 45 -19 80 -41z
m-1213 -21 c7 -7 12 -39 12 -74 l0 -62 -35 -4 -35 -4 0 71 c0 40 3 75 7 78 10
11 38 8 51 -5z m2300 -69 l3 -75 -36 4 -35 4 0 62 c0 66 12 89 45 84 18 -3 20
-12 23 -79z m-2195 -311 c113 -97 117 -102 117 -141 l0 -40 -63 60 c-34 33
-86 72 -115 87 l-53 27 -56 -25 c-36 -17 -81 -52 -130 -100 l-74 -75 3 48 c3
47 4 48 122 154 66 59 123 107 126 107 4 0 59 -46 123 -102z m2288 -8 l118
-105 1 -46 0 -47 -74 74 c-48 48 -93 83 -129 100 l-56 25 -53 -27 c-29 -15
-81 -54 -115 -87 l-63 -60 0 40 c0 39 4 44 117 142 65 55 122 100 127 98 4 -1
62 -50 127 -107z m-2781 -170 l0 -160 -70 0 -70 0 0 160 0 160 70 0 70 0 0
-160z m860 0 l0 -160 -65 0 -65 0 0 160 0 160 65 0 65 0 0 -160z m1430 0 l0
-160 -65 0 -65 0 0 160 0 160 65 0 65 0 0 -160z m870 0 l0 -160 -70 0 -70 0 0
160 0 160 70 0 70 0 0 -160z m-1578 113 c66 -48 143 -143 201 -246 l47 -82 0
-197 0 -198 -305 0 -305 0 0 195 0 196 31 62 c61 119 157 236 239 290 34 22
36 22 92 -20z m-1834 -35 l3 -48 -271 0 -271 0 22 33 c50 73 28 68 283 65
l231 -3 3 -47z m4030 0 l34 -48 -271 0 -271 0 0 43 c0 24 3 47 7 51 4 3 110 5
237 4 l230 -3 34 -47z m-3351 -67 c48 -35 99 -96 147 -176 l36 -59 0 -193 0
-193 -245 0 -245 0 0 165 0 165 36 73 c20 39 55 96 77 126 42 54 120 121 142
121 7 0 30 -13 52 -29z m2274 -5 c57 -43 117 -122 163 -213 l36 -73 0 -165 0
-165 -245 0 -245 0 0 193 0 193 36 59 c63 106 160 205 199 205 7 0 32 -15 56
-34z m-2952 -356 l2 -260 -296 0 -295 0 0 260 0 260 294 0 293 0 2 -260z
m4111 0 l0 -260 -295 0 -296 0 2 260 2 260 293 0 294 0 0 -260z m-3860 -95 l0
-165 -70 0 -70 0 0 165 0 165 70 0 70 0 0 -165z m860 0 l0 -165 -65 0 -65 0 0
165 0 165 65 0 65 0 0 -165z m1430 0 l0 -165 -65 0 -65 0 0 165 0 165 65 0 65
0 0 -165z m870 0 l0 -165 -70 0 -70 0 0 165 0 165 70 0 70 0 0 -165z"/>
<path d="M2436 3449 c-74 -17 -170 -73 -232 -134 -114 -112 -170 -278 -145
-433 38 -248 251 -432 501 -432 250 0 463 184 501 432 40 252 -134 510 -381
567 -54 13 -190 12 -244 0z m270 -130 c77 -29 165 -113 206 -197 31 -62 33
-74 33 -167 0 -87 -4 -107 -27 -157 -54 -117 -172 -207 -296 -227 -171 -27
-345 66 -420 227 -24 50 -27 69 -27 157 0 88 3 107 27 158 52 110 166 203 278
227 62 12 160 3 226 -21z"/>
<path d="M1379 2033 c-40 -6 -107 -68 -119 -111 -5 -20 -10 -74 -10 -119 0
-119 5 -123 163 -123 158 0 157 -1 157 134 0 77 -4 105 -20 135 -30 60 -100
93 -171 84z m59 -125 c7 -7 12 -34 12 -60 l0 -48 -40 0 -40 0 0 48 c0 50 12
72 40 72 9 0 21 -5 28 -12z"/>
<path d="M3664 2030 c-86 -19 -124 -86 -124 -218 0 -130 3 -132 164 -132 155
0 156 1 156 134 0 70 -4 99 -21 132 -31 66 -103 100 -175 84z m64 -122 c7 -7
12 -34 12 -60 l0 -48 -40 0 -40 0 0 48 c0 50 12 72 40 72 9 0 21 -5 28 -12z"/>
</g>
</svg>
