<?xml version="1.0" standalone="no"?>
<!DOCTYPE svg PUBLIC "-//W3C//DTD SVG 20010904//EN"
 "http://www.w3.org/TR/2001/REC-SVG-20010904/DTD/svg10.dtd">
<svg version="1.0" xmlns="http://www.w3.org/2000/svg"
 width="512.000000pt" height="512.000000pt" viewBox="0 0 512.000000 512.000000"
 preserveAspectRatio="xMidYMid meet">

<g transform="translate(0.000000,512.000000) scale(0.100000,-0.100000)"
fill="#D3D3D3" stroke="none">
<path d="M2488 5099 c-47 -24 -73 -74 -81 -153 -11 -113 -92 -199 -213 -225
-476 -105 -871 -400 -1068 -798 -47 -96 -92 -211 -84 -218 2 -3 328 92 724
211 l719 216 95 -5 c88 -4 142 -19 780 -211 377 -114 695 -209 707 -212 22 -6
22 -5 -8 73 -184 479 -549 790 -1094 934 -68 18 -125 39 -150 57 -57 40 -95
106 -102 178 -8 80 -34 129 -83 154 -49 25 -94 25 -142 -1z"/>
<path d="M1696 3583 c-897 -270 -863 -257 -886 -343 -7 -26 -10 -261 -8 -702
l3 -663 24 -38 c22 -35 80 -66 855 -454 726 -364 837 -416 876 -416 39 0 150
52 876 416 775 388 833 419 855 454 l24 38 0 685 0 685 -23 36 c-12 20 -37 44
-55 52 -71 34 -1638 497 -1680 496 -25 0 -378 -101 -861 -246z m618 -431 c16
-10 38 -30 50 -45 21 -28 21 -37 24 -580 l2 -552 -22 -44 c-55 -108 -207 -108
-260 -1 -16 32 -18 81 -18 583 0 590 -1 575 53 625 46 43 110 48 171 14z m646
-1 c14 -10 35 -33 48 -51 l22 -33 0 -551 c0 -505 -2 -554 -18 -586 -53 -107
-205 -107 -259 0 l-23 44 0 538 c0 432 3 545 14 571 35 84 145 118 216 68z
m-1294 -187 c18 -9 44 -33 56 -53 23 -36 23 -40 23 -378 0 -331 -1 -342 -21
-370 -70 -94 -190 -96 -251 -4 -23 34 -23 37 -23 375 0 323 1 343 20 374 41
66 124 90 196 56z m1932 -4 c18 -11 41 -34 52 -52 19 -31 20 -51 20 -374 0
-338 0 -341 -23 -375 -61 -92 -181 -90 -251 4 -20 27 -21 42 -24 347 -2 202 1
333 8 358 10 41 50 88 85 103 37 14 99 10 133 -11z"/>
<path d="M1314 1154 c-64 -96 -133 -163 -296 -285 -86 -65 -166 -129 -178
-141 -30 -32 -43 -90 -31 -136 22 -82 -6 -71 900 -343 457 -137 841 -249 853
-249 13 0 396 112 851 249 622 186 834 254 852 271 39 37 59 99 46 146 -16 56
-28 68 -206 201 -164 123 -243 199 -302 291 -18 28 -36 52 -38 52 -3 0 -233
-114 -513 -254 -279 -139 -532 -261 -562 -271 -71 -24 -196 -24 -265 0 -27 10
-278 132 -557 271 -280 140 -510 254 -512 254 -3 0 -22 -25 -42 -56z"/>
</g>
</svg>
