<svg width="576" height="513" viewBox="0 0 576 513" fill="none" xmlns="http://www.w3.org/2000/svg">
<path d="M544 0.5C561.7 0.5 576 14.8 576 32.5V480.5C576 498.2 561.7 512.5 544 512.5C526.3 512.5 512 498.2 512 480.5V32.5C512 14.8 526.3 0.5 544 0.5ZM416 96.5C433.7 96.5 448 110.8 448 128.5V480.5C448 498.2 433.7 512.5 416 512.5C398.3 512.5 384 498.2 384 480.5V128.5C384 110.8 398.3 96.5 416 96.5ZM320 224.5V480.5C320 498.2 305.7 512.5 288 512.5C270.3 512.5 256 498.2 256 480.5V224.5C256 206.8 270.3 192.5 288 192.5C305.7 192.5 320 206.8 320 224.5ZM160 288.5C177.7 288.5 192 302.8 192 320.5V480.5C192 498.2 177.7 512.5 160 512.5C142.3 512.5 128 498.2 128 480.5V320.5C128 302.8 142.3 288.5 160 288.5ZM64 416.5V480.5C64 498.2 49.7 512.5 32 512.5C14.3 512.5 0 498.2 0 480.5V416.5C0 398.8 14.3 384.5 32 384.5C49.7 384.5 64 398.8 64 416.5Z" fill="#D3D3D3"/>
</svg>
