<?xml version="1.0" standalone="no"?>
<!DOCTYPE svg PUBLIC "-//W3C//DTD SVG 20010904//EN"
 "http://www.w3.org/TR/2001/REC-SVG-20010904/DTD/svg10.dtd">
<svg version="1.0" xmlns="http://www.w3.org/2000/svg"
 width="450.000000pt" height="450.000000pt" viewBox="0 0 450.000000 450.000000"
 preserveAspectRatio="xMidYMid meet">

<g transform="translate(0.000000,450.000000) scale(0.100000,-0.100000)"
fill="#000000" stroke="none">
<path d="M2416 4202 c-3 -5 -10 -67 -16 -138 -6 -71 -16 -157 -21 -191 -10
-55 -13 -62 -32 -60 -20 2 -22 -4 -28 -70 -3 -40 -8 -75 -11 -78 -3 -4 -15 -1
-27 7 -31 19 -40 2 -51 -98 -18 -157 -25 -158 -30 -5 -3 97 -9 146 -17 148
-20 7 -50 -37 -68 -98 -13 -50 -19 -59 -34 -54 -17 5 -19 -4 -25 -92 -12 -175
-26 -495 -26 -605 l0 -108 -212 -1 c-358 -1 -383 -2 -380 -18 2 -11 -9 -13
-56 -8 -46 5 -63 3 -72 -8 -14 -17 -14 -17 50 -19 65 -2 56 -21 -10 -21 -42 0
-55 -4 -58 -16 -2 -10 5 -19 18 -22 25 -7 26 -27 1 -34 -20 -5 -38 -33 -21
-33 6 0 10 -4 10 -10 0 -5 -6 -10 -13 -10 -20 0 -48 -35 -42 -52 4 -9 -4 -19
-20 -28 -67 -36 -23 -40 421 -40 l384 0 4 -22 c7 -33 15 -271 26 -738 5 -223
14 -452 20 -510 6 -58 15 -177 19 -265 5 -88 12 -169 17 -179 7 -19 8 -19 15
0 5 12 8 -1 8 -37 2 -115 14 -208 27 -213 12 -4 13 15 8 109 -5 76 -4 115 3
115 6 0 14 -52 19 -122 8 -105 12 -123 27 -126 14 -3 17 4 17 32 0 44 27 50
36 9 3 -16 8 -34 10 -41 6 -20 30 -8 26 13 -2 10 1 14 7 10 6 -3 11 -13 11
-21 0 -22 39 -94 50 -94 6 0 10 10 11 23 0 25 1 24 35 -58 29 -72 32 -13 13
250 -38 532 -69 1267 -69 1661 l0 211 298 7 c421 9 522 15 522 32 0 11 -19 14
-82 14 -105 0 -127 6 -121 30 4 15 -2 19 -34 22 -35 3 -38 5 -36 33 3 35 -10
44 -57 46 -19 0 -44 4 -55 9 -26 10 -10 16 64 24 29 3 56 8 59 10 2 3 1 17 -2
31 -5 18 -19 31 -42 41 -29 12 -34 18 -28 36 l6 21 -247 -6 -247 -6 7 157 c18
466 28 663 45 907 22 306 24 355 11 355 -6 0 -12 -4 -15 -8z"/>
</g>
</svg>
