<?xml version="1.0" standalone="no"?>
<!DOCTYPE svg PUBLIC "-//W3C//DTD SVG 20010904//EN"
 "http://www.w3.org/TR/2001/REC-SVG-20010904/DTD/svg10.dtd">
<svg version="1.0" xmlns="http://www.w3.org/2000/svg"
 width="360.000000pt" height="572.000000pt" viewBox="0 0 360.000000 572.000000"
 preserveAspectRatio="xMidYMid meet">

<g transform="translate(0.000000,572.000000) scale(0.100000,-0.100000)"
fill="#00000" stroke="none">
<path d="M1805 5545 c-12 -40 -57 -124 -75 -140 -18 -16 -17 -18 6 -72 64
-144 73 -286 67 -1010 l-6 -593 -176 0 c-97 0 -396 -1 -666 -2 -482 -1 -491
-1 -535 20 -25 12 -53 27 -62 34 -15 10 -22 8 -45 -14 -15 -15 -47 -32 -70
-40 -51 -15 -54 -24 -13 -33 17 -4 53 -22 81 -41 l51 -34 23 24 c12 13 40 29
61 35 26 7 259 11 697 11 l658 0 -6 -1477 c-3 -813 -8 -1516 -11 -1562 -3 -50
-15 -109 -29 -148 l-23 -65 20 -34 c26 -45 48 -128 48 -187 0 -69 16 -49 25
30 4 38 18 101 31 141 23 68 23 75 8 103 -40 79 -44 115 -39 364 3 132 8 824
12 1538 l6 1297 683 0 683 0 75 -39 c58 -31 76 -37 80 -25 9 23 68 54 104 54
43 0 41 14 -5 28 -51 16 -103 49 -103 65 0 9 -19 4 -62 -17 l-63 -31 -280 1
c-154 0 -469 1 -699 2 l-419 2 6 753 c6 762 9 819 44 882 10 16 8 24 -9 42
-12 13 -32 53 -44 90 -17 50 -24 63 -29 48z"/>
<path d="M1627 5084 c-4 -5 -17 -28 -28 -53 -21 -48 -76 -122 -118 -159 -44
-39 -142 -93 -191 -105 -25 -7 -48 -15 -51 -18 -2 -4 31 -45 75 -91 103 -112
157 -191 216 -313 48 -99 50 -116 11 -96 -50 27 -101 -4 -101 -63 0 -39 19
-59 52 -54 28 4 41 58 14 58 -10 0 -16 -9 -16 -25 0 -27 -9 -32 -28 -13 -17
17 -15 63 4 78 13 11 23 10 59 -8 24 -12 51 -32 60 -46 16 -25 52 -272 41
-284 -8 -7 -210 14 -258 28 -55 16 -81 41 -81 79 0 36 15 51 44 44 24 -7 24
-22 2 -39 -20 -14 -12 -29 12 -21 19 8 20 51 0 67 -51 43 -102 -57 -59 -118
15 -22 15 -22 -28 -16 -179 26 -349 73 -442 123 -47 25 -49 25 -60 7 -22 -39
-82 -100 -129 -131 -39 -27 -45 -34 -30 -38 10 -3 248 -5 528 -4 l510 2 3 308
c4 454 -2 910 -11 901z"/>
<path d="M1988 4948 c-3 -73 -5 -347 -4 -608 l1 -475 557 0 c423 0 558 3 558
12 0 6 -10 15 -21 18 -12 4 -59 43 -105 87 l-83 80 -141 -46 c-78 -25 -189
-58 -248 -72 -59 -14 -115 -28 -126 -31 -17 -5 -18 -1 -12 41 6 40 4 49 -18
71 -30 30 -46 31 -77 6 -21 -17 -22 -22 -11 -46 10 -22 15 -25 27 -15 17 14
11 30 -12 30 -13 0 -13 3 -3 16 8 8 25 14 39 12 36 -4 41 -51 9 -85 -37 -40
-77 -52 -207 -59 l-121 -7 4 29 c3 16 8 59 11 96 10 123 84 248 146 248 25 0
29 -4 29 -29 0 -17 -4 -33 -10 -36 -5 -3 -10 -1 -10 4 0 6 -7 11 -15 11 -20 0
-19 -29 2 -37 19 -7 53 29 53 58 0 31 -41 51 -89 43 -22 -4 -41 -4 -41 -1 0
13 66 158 98 217 60 110 110 178 158 214 25 19 45 37 45 41 0 3 -37 24 -81 46
-99 50 -211 155 -255 241 -17 32 -33 58 -36 58 -4 0 -9 -60 -11 -132z"/>
<path d="M683 3553 c-57 -2 -103 -8 -103 -13 0 -5 26 -29 58 -54 31 -24 80
-68 109 -98 50 -52 123 -157 123 -178 0 -18 15 -11 46 21 59 62 338 249 372
249 7 0 9 -19 5 -55 -7 -66 12 -95 62 -95 35 0 55 15 55 41 0 24 -27 49 -45
43 -22 -9 -18 -34 6 -34 31 0 20 -34 -13 -38 -34 -4 -63 36 -54 73 18 71 122
122 254 124 l62 2 0 -65 c0 -162 -66 -289 -135 -262 -16 6 -21 51 -6 60 5 3
12 -2 15 -11 5 -12 9 -14 18 -5 9 9 8 16 -5 29 -15 16 -18 15 -37 -2 -25 -23
-26 -57 0 -80 19 -17 52 -17 94 0 17 7 18 5 12 -21 -15 -59 -99 -262 -142
-343 -24 -46 -66 -114 -93 -150 -48 -65 -75 -121 -52 -107 6 4 11 14 11 21 0
18 41 29 75 21 25 -6 165 -131 165 -146 0 -5 -23 -16 -52 -26 -40 -13 -89 -17
-220 -18 -92 0 -168 -3 -168 -7 0 -3 75 -9 168 -12 171 -5 272 -24 272 -50 0
-7 -21 -33 -47 -59 -98 -93 -169 -122 -193 -77 -7 11 -14 18 -17 16 -2 -3 21
-56 52 -119 61 -120 98 -216 151 -392 30 -100 41 -149 74 -333 17 -100 50
-469 50 -571 0 -60 4 -91 10 -87 7 4 10 364 11 1053 0 576 4 1206 7 1400 l7
352 -395 0 c-217 0 -411 2 -430 3 -19 2 -81 2 -137 0z"/>
<path d="M1997 3552 c-16 -3 -17 -53 -17 -620 0 -339 -3 -971 -7 -1404 -5
-597 -3 -788 5 -788 8 0 12 30 12 98 0 180 27 459 65 662 48 259 119 439 243
615 83 118 109 182 52 125 -11 -11 -29 -20 -40 -20 -47 0 -183 88 -206 133
-14 27 -14 28 18 41 22 9 96 16 217 20 102 4 186 8 188 10 2 1 -74 6 -169 9
-159 6 -240 16 -256 31 -8 9 54 72 122 122 62 47 98 55 128 27 39 -35 17 15
-53 123 -74 113 -212 385 -224 441 -6 32 -6 32 27 27 71 -11 118 70 69 119
-17 17 -25 19 -39 11 -9 -6 -18 -21 -20 -33 -3 -18 1 -22 15 -19 10 2 17 11
17 21 -2 23 13 21 26 -4 15 -26 -11 -69 -41 -69 -30 0 -95 68 -109 115 -6 22
-14 76 -17 119 -5 75 -5 79 13 72 11 -4 48 -14 84 -22 36 -8 92 -30 125 -47
55 -29 60 -35 63 -69 3 -30 -1 -38 -18 -43 -12 -4 -28 -1 -36 6 -14 11 -13 14
5 21 28 10 27 30 -1 26 -48 -7 -28 -68 22 -68 37 0 64 32 62 75 -1 19 3 35 9
35 44 0 343 -160 441 -236 31 -24 58 -44 61 -44 3 0 7 11 11 23 11 44 109 182
184 260 47 48 72 81 66 87 -8 8 -1057 20 -1097 12z"/>
</g>
</svg>
